Normalized EMG Linear Envelopes
nRows=65
nColumns=17

endheader
time	        VM	        VL	        RF	       GRA	        TA	   ADDLONG	   SEMIMEM	      BFLH	        GM	        GL	       TFL	   GLUTMAX	   GLUTMED	      PIRI	    OBTINT	        QF	
1.8765	  0.645881	  0.514042	  0.077028	  0.460464	  0.319629	  0.100849	  0.661993	  0.742603	  0.599635	  0.218453	  0.044005	  0.661726	  0.282837	  0.536800	  0.717555	  1.318262	
1.877	  0.651016	  0.517126	  0.077822	  0.458440	  0.315956	  0.100606	  0.659653	  0.738688	  0.603000	  0.221135	  0.044665	  0.663617	  0.281708	  0.538191	  0.715335	  1.319041	
1.8775	  0.656102	  0.520168	  0.078611	  0.456424	  0.312288	  0.100363	  0.657278	  0.734761	  0.606385	  0.223834	  0.045330	  0.665429	  0.280601	  0.539560	  0.713096	  1.319754	
1.878	  0.661135	  0.523164	  0.079397	  0.454415	  0.308627	  0.100121	  0.654868	  0.730826	  0.609789	  0.226549	  0.045998	  0.667160	  0.279515	  0.540905	  0.710840	  1.320402	
1.8785	  0.666111	  0.526113	  0.080179	  0.452415	  0.304975	  0.099879	  0.652425	  0.726884	  0.613211	  0.229281	  0.046671	  0.668812	  0.278450	  0.542226	  0.708565	  1.320981	
1.879	  0.671026	  0.529014	  0.080955	  0.450421	  0.301332	  0.099637	  0.649948	  0.722936	  0.616652	  0.232030	  0.047348	  0.670382	  0.277406	  0.543521	  0.706274	  1.321493	
1.8795	  0.675877	  0.531864	  0.081727	  0.448434	  0.297701	  0.099396	  0.647439	  0.718986	  0.620111	  0.234796	  0.048028	  0.671870	  0.276383	  0.544790	  0.703965	  1.321934	
1.88	  0.680659	  0.534662	  0.082494	  0.446455	  0.294083	  0.099156	  0.644899	  0.715035	  0.623588	  0.237580	  0.048713	  0.673276	  0.275380	  0.546031	  0.701640	  1.322304	
1.8805	  0.685367	  0.537406	  0.083255	  0.444481	  0.290480	  0.098915	  0.642329	  0.711087	  0.627082	  0.240383	  0.049401	  0.674600	  0.274398	  0.547244	  0.699300	  1.322600	
1.881	  0.689999	  0.540092	  0.084010	  0.442515	  0.286893	  0.098675	  0.639731	  0.707143	  0.630592	  0.243205	  0.050092	  0.675839	  0.273436	  0.548427	  0.696943	  1.322819	
1.8815	  0.694548	  0.542720	  0.084759	  0.440554	  0.283323	  0.098435	  0.637105	  0.703206	  0.634118	  0.246048	  0.050786	  0.676994	  0.272494	  0.549578	  0.694571	  1.322959	
1.882	  0.699011	  0.545287	  0.085502	  0.438600	  0.279771	  0.098195	  0.634455	  0.699278	  0.637658	  0.248912	  0.051484	  0.678064	  0.271573	  0.550696	  0.692183	  1.323018	
1.8825	  0.703383	  0.547790	  0.086237	  0.436652	  0.276238	  0.097956	  0.631783	  0.695363	  0.641211	  0.251799	  0.052185	  0.679048	  0.270671	  0.551781	  0.689780	  1.322992	
1.883	  0.707659	  0.550228	  0.086965	  0.434709	  0.272725	  0.097717	  0.629091	  0.691462	  0.644776	  0.254709	  0.052889	  0.679945	  0.269790	  0.552830	  0.687362	  1.322878	
1.8835	  0.711835	  0.552597	  0.087686	  0.432772	  0.269234	  0.097479	  0.626380	  0.687578	  0.648351	  0.257644	  0.053595	  0.680756	  0.268928	  0.553843	  0.684927	  1.322672	
1.884	  0.715905	  0.554895	  0.088398	  0.430841	  0.265765	  0.097240	  0.623654	  0.683712	  0.651936	  0.260603	  0.054304	  0.681480	  0.268086	  0.554818	  0.682477	  1.322372	
1.8845	  0.719865	  0.557120	  0.089102	  0.428916	  0.262319	  0.097002	  0.620914	  0.679868	  0.655528	  0.263589	  0.055016	  0.682117	  0.267263	  0.555754	  0.680011	  1.321973	
1.885	  0.723709	  0.559267	  0.089797	  0.426997	  0.258898	  0.096765	  0.618162	  0.676047	  0.659126	  0.266603	  0.055730	  0.682667	  0.266460	  0.556651	  0.677528	  1.321473	
1.8855	  0.727434	  0.561335	  0.090483	  0.425083	  0.255501	  0.096527	  0.615399	  0.672253	  0.662728	  0.269644	  0.056445	  0.683132	  0.265676	  0.557507	  0.675029	  1.320868	
1.886	  0.731033	  0.563321	  0.091160	  0.423174	  0.252131	  0.096290	  0.612628	  0.668489	  0.666332	  0.272714	  0.057163	  0.683512	  0.264911	  0.558322	  0.672513	  1.320154	
1.8865	  0.734503	  0.565221	  0.091826	  0.421271	  0.248788	  0.096053	  0.609851	  0.664756	  0.669936	  0.275815	  0.057882	  0.683807	  0.264164	  0.559095	  0.669980	  1.319327	
1.887	  0.737841	  0.567033	  0.092482	  0.419373	  0.245473	  0.095816	  0.607068	  0.661060	  0.673539	  0.278945	  0.058603	  0.684019	  0.263435	  0.559825	  0.667430	  1.318383	
1.8875	  0.741043	  0.568756	  0.093127	  0.417479	  0.242187	  0.095578	  0.604281	  0.657403	  0.677139	  0.282107	  0.059325	  0.684149	  0.262723	  0.560512	  0.664862	  1.317320	
1.888	  0.744108	  0.570387	  0.093762	  0.415590	  0.238931	  0.095341	  0.601492	  0.653787	  0.680734	  0.285300	  0.060048	  0.684198	  0.262029	  0.561155	  0.662276	  1.316133	
1.8885	  0.747035	  0.571925	  0.094384	  0.413704	  0.235705	  0.095104	  0.598701	  0.650216	  0.684323	  0.288526	  0.060771	  0.684168	  0.261351	  0.561753	  0.659672	  1.314822	
1.889	  0.749823	  0.573369	  0.094994	  0.411822	  0.232511	  0.094867	  0.595910	  0.646692	  0.687905	  0.291784	  0.061496	  0.684061	  0.260689	  0.562305	  0.657049	  1.313383	
1.8895	  0.752471	  0.574716	  0.095591	  0.409944	  0.229348	  0.094629	  0.593120	  0.643218	  0.691477	  0.295076	  0.062221	  0.683878	  0.260043	  0.562810	  0.654407	  1.311815	
1.89	  0.754977	  0.575966	  0.096175	  0.408068	  0.226218	  0.094391	  0.590331	  0.639796	  0.695038	  0.298401	  0.062946	  0.683621	  0.259412	  0.563267	  0.651746	  1.310116	
1.8905	  0.757342	  0.577118	  0.096745	  0.406195	  0.223122	  0.094152	  0.587545	  0.636428	  0.698587	  0.301760	  0.063671	  0.683292	  0.258795	  0.563676	  0.649066	  1.308284	
1.891	  0.759565	  0.578170	  0.097300	  0.404324	  0.220060	  0.093913	  0.584763	  0.633116	  0.702122	  0.305154	  0.064395	  0.682891	  0.258193	  0.564034	  0.646367	  1.306318	
1.8915	  0.761643	  0.579122	  0.097840	  0.402454	  0.217032	  0.093673	  0.581985	  0.629861	  0.705642	  0.308582	  0.065120	  0.682420	  0.257604	  0.564341	  0.643649	  1.304218	
1.892	  0.763577	  0.579972	  0.098364	  0.400586	  0.214039	  0.093432	  0.579213	  0.626666	  0.709145	  0.312044	  0.065843	  0.681879	  0.257027	  0.564596	  0.640911	  1.301982	
1.8925	  0.765366	  0.580720	  0.098872	  0.398719	  0.211082	  0.093190	  0.576447	  0.623532	  0.712631	  0.315541	  0.066566	  0.681271	  0.256463	  0.564797	  0.638154	  1.299612	
1.893	  0.767008	  0.581363	  0.099363	  0.396852	  0.208160	  0.092946	  0.573688	  0.620460	  0.716098	  0.319073	  0.067287	  0.680596	  0.255911	  0.564945	  0.635378	  1.297107	
1.8935	  0.768504	  0.581902	  0.099837	  0.394984	  0.205275	  0.092701	  0.570937	  0.617451	  0.719546	  0.322640	  0.068006	  0.679854	  0.255369	  0.565038	  0.632584	  1.294470	
1.894	  0.769852	  0.582334	  0.100293	  0.393116	  0.202427	  0.092453	  0.568194	  0.614507	  0.722974	  0.326242	  0.068724	  0.679047	  0.254838	  0.565075	  0.629770	  1.291700	
1.8945	  0.771051	  0.582661	  0.100730	  0.391246	  0.199615	  0.092204	  0.565459	  0.611628	  0.726381	  0.329878	  0.069439	  0.678176	  0.254317	  0.565056	  0.626938	  1.288799	
1.895	  0.772102	  0.582882	  0.101150	  0.389375	  0.196840	  0.091952	  0.562734	  0.608815	  0.729766	  0.333550	  0.070152	  0.677240	  0.253804	  0.564980	  0.624089	  1.285767	
1.8955	  0.773004	  0.582997	  0.101551	  0.387501	  0.194103	  0.091697	  0.560018	  0.606069	  0.733128	  0.337257	  0.070862	  0.676241	  0.253300	  0.564848	  0.621222	  1.282605	
1.896	  0.773757	  0.583007	  0.101933	  0.385625	  0.191403	  0.091440	  0.557312	  0.603390	  0.736467	  0.340998	  0.071568	  0.675179	  0.252803	  0.564660	  0.618338	  1.279314	
1.8965	  0.774363	  0.582914	  0.102296	  0.383747	  0.188741	  0.091180	  0.554616	  0.600779	  0.739783	  0.344774	  0.072271	  0.674055	  0.252313	  0.564415	  0.615438	  1.275894	
1.897	  0.774821	  0.582719	  0.102641	  0.381867	  0.186116	  0.090917	  0.551931	  0.598236	  0.743075	  0.348585	  0.072970	  0.672868	  0.251828	  0.564114	  0.612523	  1.272345	
1.8975	  0.775134	  0.582424	  0.102966	  0.379985	  0.183530	  0.090652	  0.549256	  0.595760	  0.746342	  0.352431	  0.073664	  0.671620	  0.251348	  0.563757	  0.609592	  1.268669	
1.898	  0.775302	  0.582030	  0.103273	  0.378101	  0.180981	  0.090384	  0.546591	  0.593353	  0.749584	  0.356311	  0.074353	  0.670311	  0.250872	  0.563346	  0.606647	  1.264865	
1.8985	  0.775328	  0.581539	  0.103561	  0.376215	  0.178471	  0.090114	  0.543937	  0.591013	  0.752802	  0.360225	  0.075037	  0.668941	  0.250398	  0.562881	  0.603688	  1.260934	
1.899	  0.775211	  0.580951	  0.103831	  0.374327	  0.175999	  0.089841	  0.541293	  0.588740	  0.755994	  0.364173	  0.075715	  0.667513	  0.249926	  0.562363	  0.600716	  1.256878	
1.8995	  0.774954	  0.580269	  0.104082	  0.372438	  0.173566	  0.089565	  0.538660	  0.586534	  0.759160	  0.368154	  0.076386	  0.666026	  0.249455	  0.561792	  0.597731	  1.252699	
1.9	  0.774557	  0.579492	  0.104314	  0.370547	  0.171171	  0.089287	  0.536036	  0.584395	  0.762300	  0.372168	  0.077051	  0.664482	  0.248983	  0.561169	  0.594734	  1.248398	
1.9005	  0.774021	  0.578622	  0.104528	  0.368653	  0.168814	  0.089006	  0.533422	  0.582321	  0.765412	  0.376215	  0.077709	  0.662882	  0.248509	  0.560495	  0.591725	  1.243977	
1.901	  0.773348	  0.577661	  0.104724	  0.366758	  0.166496	  0.088721	  0.530818	  0.580312	  0.768496	  0.380293	  0.078359	  0.661227	  0.248034	  0.559770	  0.588705	  1.239439	
1.9015	  0.772538	  0.576608	  0.104902	  0.364860	  0.164217	  0.088434	  0.528224	  0.578367	  0.771550	  0.384402	  0.079001	  0.659519	  0.247556	  0.558997	  0.585674	  1.234785	
1.902	  0.771591	  0.575466	  0.105060	  0.362961	  0.161976	  0.088143	  0.525639	  0.576486	  0.774574	  0.388543	  0.079634	  0.657758	  0.247073	  0.558175	  0.582632	  1.230019	
1.9025	  0.770509	  0.574235	  0.105201	  0.361059	  0.159773	  0.087850	  0.523064	  0.574666	  0.777565	  0.392715	  0.080258	  0.655946	  0.246586	  0.557306	  0.579581	  1.225142	
1.903	  0.769292	  0.572918	  0.105323	  0.359156	  0.157609	  0.087552	  0.520501	  0.572907	  0.780524	  0.396916	  0.080872	  0.654084	  0.246094	  0.556390	  0.576521	  1.220157	
1.9035	  0.767940	  0.571515	  0.105426	  0.357250	  0.155483	  0.087251	  0.517948	  0.571208	  0.783449	  0.401148	  0.081475	  0.652173	  0.245596	  0.555427	  0.573452	  1.215067	
1.904	  0.766454	  0.570031	  0.105510	  0.355342	  0.153394	  0.086947	  0.515408	  0.569565	  0.786339	  0.405409	  0.082067	  0.650214	  0.245091	  0.554418	  0.570374	  1.209875	
1.9045	  0.764833	  0.568466	  0.105575	  0.353432	  0.151343	  0.086638	  0.512879	  0.567979	  0.789194	  0.409698	  0.082648	  0.648207	  0.244578	  0.553364	  0.567287	  1.204582	
1.905	  0.763079	  0.566824	  0.105622	  0.351519	  0.149329	  0.086326	  0.510365	  0.566447	  0.792013	  0.414015	  0.083217	  0.646155	  0.244058	  0.552264	  0.564192	  1.199192	
1.9055	  0.761189	  0.565106	  0.105650	  0.349604	  0.147352	  0.086010	  0.507864	  0.564967	  0.794795	  0.418359	  0.083774	  0.644057	  0.243528	  0.551119	  0.561089	  1.193707	
1.906	  0.759166	  0.563315	  0.105659	  0.347686	  0.145411	  0.085691	  0.505379	  0.563538	  0.797538	  0.422730	  0.084317	  0.641915	  0.242989	  0.549928	  0.557977	  1.188128	
1.9065	  0.757008	  0.561454	  0.105648	  0.345766	  0.143507	  0.085367	  0.502912	  0.562156	  0.800241	  0.427126	  0.084847	  0.639730	  0.242441	  0.548692	  0.554857	  1.182457	
1.907	  0.754717	  0.559524	  0.105620	  0.343843	  0.141640	  0.085041	  0.500464	  0.560820	  0.802903	  0.431547	  0.085363	  0.637504	  0.241881	  0.547411	  0.551729	  1.176698	
1.9075	  0.752292	  0.557528	  0.105572	  0.341917	  0.139808	  0.084711	  0.498036	  0.559528	  0.805523	  0.435992	  0.085865	  0.635237	  0.241311	  0.546084	  0.548594	  1.170851	
1.908	  0.749736	  0.555470	  0.105506	  0.339988	  0.138012	  0.084377	  0.495631	  0.558278	  0.808100	  0.440461	  0.086352	  0.632932	  0.240729	  0.544712	  0.545451	  1.164920	
1.9085	  0.747048	  0.553351	  0.105421	  0.338056	  0.136251	  0.084041	  0.493250	  0.557069	  0.810635	  0.444951	  0.086823	  0.630587	  0.240134	  0.543294	  0.542300	  1.158904	
